HIERARCHY
ROOT Hips
{
  OFFSET 49.149 51.7315 -1.40086
  CHANNELS 6 Xposition Yposition Zposition Zrotation Xrotation Yrotation
  JOINT spine
  {
    OFFSET 0 8.30104 0.477351
    CHANNELS 3 Zrotation Xrotation Yrotation
    JOINT spine1
    {
      OFFSET 0 10.4565 0
      CHANNELS 3 Zrotation Xrotation Yrotation
      JOINT spine2
      {
        OFFSET 0 10.0192 0
        CHANNELS 3 Zrotation Xrotation Yrotation
        JOINT Neck
        {
          OFFSET 0 25.7235 1.22641
          CHANNELS 3 Zrotation Xrotation Yrotation
          JOINT Head
          {
            OFFSET 0 7.77175 0
            CHANNELS 3 Zrotation Xrotation Yrotation
            End Site
            {
              OFFSET 0 18.812 -6.20394
            }
          }
        }
        JOINT RightShoulder
        {
          OFFSET -4.2188 10.82 -0.587439
          CHANNELS 3 Zrotation Xrotation Yrotation
          JOINT RightArm
          {
            OFFSET 0 14.1914 0
            CHANNELS 3 Zrotation Xrotation Yrotation
            JOINT RightArmRoll
            {
              OFFSET 0 7.16408 0
              CHANNELS 3 Zrotation Xrotation Yrotation
              JOINT RightForeArm
              {
                OFFSET 0 20.8665 0
                CHANNELS 3 Zrotation Xrotation Yrotation
                JOINT RightForeArmRoll
                {
                  OFFSET 0 8.03921 0
                  CHANNELS 3 Zrotation Xrotation Yrotation
                  JOINT RightHand
                  {
                    OFFSET 0 16.133 0
                    CHANNELS 3 Zrotation Xrotation Yrotation
                    End Site
                    {
                      OFFSET 0 0 0
                    }
                  }
                }
              }
            }
          }
        }
        JOINT LeftShoulder
        {
          OFFSET 4.2188 10.82 -0.587439
          CHANNELS 3 Zrotation Xrotation Yrotation
          JOINT LeftArm
          {
            OFFSET 0 14.1914 0
            CHANNELS 3 Zrotation Xrotation Yrotation
            JOINT LeftArmRoll
            {
              OFFSET 0 7.16408 0
              CHANNELS 3 Zrotation Xrotation Yrotation
              JOINT LeftForeArm
              {
                OFFSET 0 20.8665 0
                CHANNELS 3 Zrotation Xrotation Yrotation
                JOINT LeftForeArmRoll
                {
                  OFFSET 0 8.03921 0
                  CHANNELS 3 Zrotation Xrotation Yrotation
                  JOINT LeftHand
                  {
                    OFFSET 0 16.133 0
                    CHANNELS 3 Zrotation Xrotation Yrotation
                    End Site
                    {
                      OFFSET 0 0 0
                    }
                  }
                }
              }
            }
          }
        }
      }
    }
  }
  JOINT RightUpLeg
  {
    OFFSET -7.35773 -1.34921 -1.13182
    CHANNELS 3 Zrotation Xrotation Yrotation
    JOINT RightUpLegRoll
    {
      OFFSET 0 18.9168 0
      CHANNELS 3 Zrotation Xrotation Yrotation
      JOINT RightLeg
      {
        OFFSET 0 -23.4256 0
        CHANNELS 3 Zrotation Xrotation Yrotation
        JOINT RightLegRoll
        {
          OFFSET 0 23.5023 0
          CHANNELS 3 Zrotation Xrotation Yrotation
          JOINT RightFoot
          {
            OFFSET 0 19.5617 0
            CHANNELS 3 Zrotation Xrotation Yrotation
            JOINT RightToeBase
            {
              OFFSET 0 16.3526 0
              CHANNELS 3 Zrotation Xrotation Yrotation
              End Site
              {
                OFFSET 0.00693125 7.91944 -0.912836
              }
            }
          }
        }
      }
    }
  }
  JOINT LeftUpLeg
  {
    OFFSET 7.35773 -1.34921 -1.13182
    CHANNELS 3 Zrotation Xrotation Yrotation
    JOINT LeftUpLegRoll
    {
      OFFSET 0 18.9169 0
      CHANNELS 3 Zrotation Xrotation Yrotation
      JOINT LeftLeg
      {
        OFFSET 0 23.4255 0
        CHANNELS 3 Zrotation Xrotation Yrotation
        JOINT LeftLegRoll
        {
          OFFSET 0 23.7195 0
          CHANNELS 3 Zrotation Xrotation Yrotation
          JOINT LeftFoot
          {
            OFFSET 0 19.3444 0
            CHANNELS 3 Zrotation Xrotation Yrotation
            JOINT LeftToeBase
            {
              OFFSET 0 16.3526 0
              CHANNELS 3 Zrotation Xrotation Yrotation
              End Site
              {
                OFFSET -0.0310629 7.91944 -0.912837
              }
            }
          }
        }
      }
    }
  }
}
MOTION
Frames: 6
Frame Time: 0.00208333
46.8255 98.9416 34.4193 -0.251387 -3.34888 1.83466 0.113987 -1.28967 0.151544 0.22909 1.42374 0.290803 0.225776 3.06881 0.28713 -0.0829873 17.9171 -2.21202 0.239179 -6.69818 -2.19706 73.7882 -1.50052 -2.42288 95.4819 20.7802 26.0423 6.36111e-015 -3.18055e-015 3.18055e-015 8.54193 0.0673219 -0.236565 -1.50592e-006 4.99958e-007 -3.07435 8.02908 -4.95145 0.697679 -63.994 1.77216 -0.335121 -103.482 12.4729 -16.2259 -1.27222e-014 1.59028e-015 -9.54166e-015 -9.65016 0.11292 0.533176 5.2743e-006 2.66363e-006 3.00737 -8.02898 -4.95146 -0.697688 176.778 -2.34861 0.450088 180 7.0153e-015 178.85 176.837 5.72621 179.693 -1.49666e-006 -1.14852e-006 0.0677275 -18.7798 68.0178 19.5458 8.12837 25.2331 -3.48427 -173.574 -1.73831 -0.25019 4.54188e-006 -4.6773e-006 -1.24229 -2.76377 -10.1139 0.521853 -2.08891e-006 -4.47415e-006 -0.136111 18.4846 67.6206 -19.1899 -8.1281 25.2331 3.48416 
46.8132 98.9431 34.397 -0.256561 -3.34964 1.8174 0.114556 -1.28961 0.15218 0.230707 1.42387 0.292 0.22738 3.06894 0.288301 -0.0932281 17.9588 -2.2 0.246988 -6.72511 -2.18682 73.8073 -1.48498 -2.4177 95.4687 20.8537 26.0105 -7.95139e-015 0 3.18055e-015 8.5411 0.067322 -0.235396 -1.50592e-006 4.99958e-007 -3.07422 8.02908 -4.95145 0.697679 -64.0028 1.76216 -0.32843 -103.48 12.4908 -16.1932 6.36111e-015 3.18055e-015 -6.36111e-015 -9.66483 0.148637 0.532669 5.2743e-006 2.66363e-006 3.00737 -8.02898 -4.95146 -0.697688 176.785 -2.32839 0.445858 180 7.0153e-015 178.85 176.837 5.74995 179.693 -1.49666e-006 -1.14852e-006 0.0677252 -18.7846 68.0235 19.5517 8.12837 25.2331 -3.48427 -173.561 -1.72179 -0.264406 4.54188e-006 -4.6773e-006 -1.24229 -2.77355 -10.1399 0.52047 -2.08891e-006 -4.47415e-006 -0.136562 18.4951 67.6335 -19.2013 -8.1281 25.2331 3.48416 
46.8133 98.9413 34.3828 -0.261845 -3.35057 1.79949 0.115129 -1.28961 0.152794 0.232363 1.42388 0.29315 0.229022 3.06895 0.289424 -0.104178 18.0019 -2.1875 0.255222 -6.75273 -2.17623 73.8267 -1.46887 -2.41228 95.4555 20.9277 25.9795 -7.95139e-015 6.36111e-015 -3.18055e-015 8.53949 0.0673223 -0.234338 -1.50592e-006 4.99958e-007 -3.0741 8.02908 -4.95145 0.697679 -64.0123 1.75146 -0.321252 -103.478 12.5079 -16.1609 8.34896e-015 3.18055e-015 -0 -9.67984 0.183663 0.531934 5.2743e-006 2.66363e-006 3.00737 -8.02898 -4.95146 -0.697688 176.793 -2.30773 0.441457 180 7.0153e-015 178.851 176.838 5.77487 179.693 -1.49666e-006 -1.14852e-006 0.0677217 -18.7898 68.0296 19.5581 8.12837 25.2331 -3.48427 -173.548 -1.70622 -0.278596 4.54188e-006 -4.6773e-006 -1.2423 -2.7834 -10.165 0.519073 -2.08891e-006 -4.47415e-006 -0.137007 18.5056 67.6464 -19.2127 -8.1281 25.2331 3.48416 
46.7936 98.9361 34.3815 -0.267207 -3.3516 1.78111 0.115705 -1.28965 0.153392 0.234045 1.42381 0.294268 0.230692 3.06888 0.290514 -0.115632 18.0458 -2.17465 0.263758 -6.78083 -2.16539 73.8462 -1.45236 -2.4067 95.4422 21.0022 25.949 7.95139e-015 -3.18055e-015 1.27222e-014 8.53732 0.0673227 -0.233358 -1.50592e-006 4.99958e-007 -3.074 8.02908 -4.95145 0.697679 -64.0224 1.74027 -0.313735 -103.475 12.5244 -16.1288 -1.19271e-015 1.59028e-015 -3.18055e-015 -9.69509 0.218205 0.531042 5.2743e-006 2.66363e-006 3.00737 -8.02898 -4.95146 -0.697688 176.801 -2.28678 0.436936 180 7.0153e-015 178.851 176.839 5.80062 179.693 -1.49666e-006 -1.14852e-006 0.0677175 -18.7954 68.0362 19.5648 8.12837 25.2331 -3.48427 -173.535 -1.69132 -0.292768 4.54188e-006 -4.6773e-006 -1.2423 -2.79328 -10.1893 0.517667 -2.08891e-006 -4.47415e-006 -0.137448 18.5161 67.6593 -19.2241 -8.1281 25.2331 3.48416 
46.8059 98.9386 34.3654 -0.272613 -3.3527 1.76246 0.116283 -1.28971 0.153981 0.235742 1.42369 0.295367 0.232378 3.06876 0.291585 -0.127384 18.0902 -2.1616 0.272471 -6.80921 -2.15441 73.8658 -1.43562 -2.40103 95.429 21.0769 25.9187 -0 0 3.18055e-015 8.53484 0.0673231 -0.232422 -1.50592e-006 4.99958e-007 -3.07391 8.02908 -4.95145 0.697679 -64.0328 1.72879 -0.306024 -103.472 12.5405 -16.0968 9.93923e-015 6.36111e-015 -0 -9.71049 0.252472 0.530059 5.2743e-006 2.66363e-006 3.00737 -8.02898 -4.95146 -0.697688 176.809 -2.26565 0.432348 180 7.0153e-015 178.851 176.839 5.82685 179.693 -1.49666e-006 -1.14852e-006 0.0677128 -18.801 68.0429 19.5717 8.12837 25.2331 -3.48427 -173.523 -1.67681 -0.306928 4.54188e-006 -4.6773e-006 -1.2423 -2.80318 -10.2133 0.516256 -2.08891e-006 -4.47415e-006 -0.137885 18.5266 67.6722 -19.2355 -8.1281 25.2331 3.48416 
46.7797 98.939 34.33 -0.278031 -3.35381 1.74375 0.116861 -1.28978 0.154568 0.237443 1.42356 0.296461 0.234067 3.06863 0.292651 -0.139226 18.1347 -2.1485 0.281237 -6.83765 -2.1434 73.8854 -1.41883 -2.39533 95.4158 21.1516 25.8886 4.77083e-015 0 3.18055e-015 8.53227 0.0673236 -0.231497 -1.50592e-006 4.99958e-007 -3.07382 8.02908 -4.95145 0.697679 -64.0432 1.71725 -0.298264 -103.469 12.5565 -16.0648 -7.95139e-016 0 -3.18055e-015 -9.72592 0.28667 0.529053 5.2743e-006 2.66363e-006 3.00737 -8.02898 -4.95146 -0.697688 176.817 -2.24448 0.427742 180 7.0153e-015 178.851 176.84 5.8532 179.693 -1.49666e-006 -1.14852e-006 0.067708 -18.8068 68.0496 19.5787 8.12837 25.2331 -3.48427 -173.51 -1.66239 -0.321085 4.54188e-006 -4.6773e-006 -1.24231 -2.8131 -10.2371 0.514844 -2.08891e-006 -4.47415e-006 -0.138323 18.5371 67.685 -19.2469 -8.1281 25.2331 3.48416 
